<svg width="19" height="19" viewBox="0 0 19 19" fill="none" xmlns="http://www.w3.org/2000/svg">
<path d="M4.73939 6.2827V9.92805M4.73939 6.2827C5.65028 6.2827 6.3887 5.54085 6.3887 4.62573C6.3887 3.7106 5.65028 2.96875 4.73939 2.96875C3.82851 2.96875 3.09009 3.7106 3.09009 4.62573C3.09009 5.54085 3.82851 6.2827 4.73939 6.2827ZM11.6665 15.5618H6.73939C5.63482 15.5618 4.73939 14.6663 4.73939 13.5618V9.92805M11.6665 15.5618C11.6665 16.4769 12.4049 17.2188 13.3158 17.2188C14.2267 17.2188 14.9651 16.4769 14.9651 15.5618C14.9651 14.6467 14.2267 13.9048 13.3158 13.9048C12.4049 13.9048 11.6665 14.6467 11.6665 15.5618ZM4.73939 9.92805H11.6665M11.6665 9.92805C11.6665 10.8432 12.4049 11.585 13.3158 11.585C14.2267 11.585 14.9651 10.8432 14.9651 9.92805C14.9651 9.01293 14.2267 8.27108 13.3158 8.27108C12.4049 8.27108 11.6665 9.01293 11.6665 9.92805Z" stroke="white" stroke-width="1.5"/>
</svg>
