<svg width="22" height="22" viewBox="0 0 22 22" fill="none" xmlns="http://www.w3.org/2000/svg">
<path d="M9.31667 15.8167L16.9542 8.17917L15.4375 6.6625L9.31667 12.7833L6.22917 9.69583L4.7125 11.2125L9.31667 15.8167ZM10.8333 21.6667C9.33472 21.6667 7.92639 21.3823 6.60833 20.8135C5.29028 20.2448 4.14375 19.4729 3.16875 18.4979C2.19375 17.5229 1.42188 16.3764 0.853125 15.0583C0.284375 13.7403 0 12.3319 0 10.8333C0 9.33472 0.284375 7.92639 0.853125 6.60833C1.42188 5.29028 2.19375 4.14375 3.16875 3.16875C4.14375 2.19375 5.29028 1.42188 6.60833 0.853125C7.92639 0.284375 9.33472 0 10.8333 0C12.3319 0 13.7403 0.284375 15.0583 0.853125C16.3764 1.42188 17.5229 2.19375 18.4979 3.16875C19.4729 4.14375 20.2448 5.29028 20.8135 6.60833C21.3823 7.92639 21.6667 9.33472 21.6667 10.8333C21.6667 12.3319 21.3823 13.7403 20.8135 15.0583C20.2448 16.3764 19.4729 17.5229 18.4979 18.4979C17.5229 19.4729 16.3764 20.2448 15.0583 20.8135C13.7403 21.3823 12.3319 21.6667 10.8333 21.6667ZM10.8333 19.5C13.2528 19.5 15.3021 18.6604 16.9813 16.9813C18.6604 15.3021 19.5 13.2528 19.5 10.8333C19.5 8.41389 18.6604 6.36458 16.9813 4.68542C15.3021 3.00625 13.2528 2.16667 10.8333 2.16667C8.41389 2.16667 6.36458 3.00625 4.68542 4.68542C3.00625 6.36458 2.16667 8.41389 2.16667 10.8333C2.16667 13.2528 3.00625 15.3021 4.68542 16.9813C6.36458 18.6604 8.41389 19.5 10.8333 19.5Z" fill="#F0F0FF"/>
</svg>
