<svg width="14" height="14" viewBox="0 0 14 14" fill="none" xmlns="http://www.w3.org/2000/svg">
<path d="M4.44397 11C4.18458 11 3.96272 10.9208 3.77839 10.7625C3.59406 10.6042 3.50169 10.4143 3.50131 10.193V3.99999H3.20964C3.12681 3.99999 3.05758 3.97599 3.00197 3.92799C2.94636 3.87999 2.91836 3.82049 2.91797 3.74949C2.91758 3.67849 2.94558 3.61916 3.00197 3.57149C3.05836 3.52382 3.12758 3.49999 3.20964 3.49999H5.25131C5.25131 3.39666 5.29603 3.30666 5.38547 3.22999C5.47492 3.15332 5.57992 3.11499 5.70047 3.11499H8.30214C8.42269 3.11499 8.5277 3.15332 8.61714 3.22999C8.70658 3.30666 8.75131 3.39666 8.75131 3.49999H10.793C10.8758 3.49999 10.945 3.52399 11.0006 3.57199C11.0563 3.61999 11.0843 3.67949 11.0846 3.75049C11.085 3.82149 11.057 3.88082 11.0006 3.92849C10.9443 3.97616 10.875 3.99999 10.793 3.99999H10.5013V10.1925C10.5013 10.4145 10.4089 10.6045 10.2242 10.7625C10.0395 10.9205 9.81783 10.9997 9.55922 11H4.44397ZM9.91797 3.99999H4.08464V10.1925C4.08464 10.2822 4.11828 10.3558 4.18556 10.4135C4.25283 10.4712 4.33897 10.5 4.44397 10.5H9.55922C9.66383 10.5 9.74978 10.4712 9.81706 10.4135C9.88433 10.3558 9.91797 10.2822 9.91797 10.1925V3.99999ZM6.22256 9.42799C6.27817 9.37999 6.30597 9.32066 6.30597 9.24999V5.24999C6.30597 5.17899 6.27797 5.11966 6.22197 5.07199C6.16597 5.02432 6.09656 5.00032 6.01372 4.99999C5.93089 4.99966 5.86167 5.02366 5.80606 5.07199C5.75045 5.12032 5.72264 5.17966 5.72264 5.24999V9.24999C5.72264 9.32099 5.75064 9.38032 5.80664 9.42799C5.86264 9.47599 5.93186 9.49999 6.01431 9.49999C6.09714 9.49999 6.16656 9.47599 6.22256 9.42799ZM8.19656 9.42799C8.25217 9.37999 8.27997 9.32066 8.27997 9.24999V5.24999C8.27997 5.17899 8.25197 5.11966 8.19597 5.07199C8.13997 5.02399 8.07075 4.99999 7.98831 4.99999C7.90547 4.99999 7.83606 5.02399 7.78006 5.07199C7.72406 5.11999 7.69625 5.17932 7.69664 5.24999V9.24999C7.69664 9.32099 7.72464 9.38032 7.78064 9.42799C7.83664 9.47566 7.90606 9.49966 7.98889 9.49999C8.07172 9.50032 8.14094 9.47632 8.19656 9.42799Z" fill="white"/>
</svg>
