<svg width="48" height="48" viewBox="0 0 48 48" fill="none" xmlns="http://www.w3.org/2000/svg">
<rect x="1.5" y="1.5" width="45" height="45" rx="8.5" stroke="#7816DB" stroke-width="3" stroke-linejoin="round"/>
<path d="M35.8446 9.96979C36.0134 10.1456 36.1171 10.3714 36.1388 10.6103C36.1604 10.8492 36.0988 11.0871 35.9639 11.2851L28.6713 22.0083L35.5717 24.078C35.7745 24.1387 35.9555 24.256 36.0924 24.4154C36.2293 24.5748 36.3161 24.7693 36.3421 24.9749C36.368 25.1804 36.332 25.3881 36.2385 25.5722C36.145 25.7564 35.998 25.9089 35.8158 26.011L14.0431 38.233C13.8324 38.3514 13.5859 38.3959 13.3439 38.3592C13.1018 38.3225 12.8784 38.2068 12.7101 38.0309C12.5418 37.8551 12.4385 37.6294 12.4171 37.3908C12.3957 37.1522 12.4574 36.9146 12.5921 36.7168L19.8853 25.9916L12.9849 23.9219C12.7821 23.8612 12.6011 23.7439 12.4642 23.5845C12.3273 23.4251 12.2405 23.2307 12.2145 23.0251C12.1886 22.8195 12.2246 22.6118 12.3181 22.4277C12.4116 22.2436 12.5586 22.091 12.7408 21.9889L34.5135 9.76689C34.7239 9.64867 34.9701 9.60417 35.2118 9.64064C35.4536 9.67711 35.6768 9.7924 35.8452 9.96777L35.8446 9.96979ZM15.9946 22.6185L21.8982 24.3892C22.0607 24.4379 22.2098 24.5231 22.3335 24.6379C22.4572 24.7528 22.552 24.894 22.6103 25.0504C22.6687 25.2067 22.6889 25.3738 22.6694 25.5381C22.6499 25.7024 22.5912 25.8594 22.498 25.9965L16.96 34.1374L32.5599 25.3808L26.6584 23.6108C26.4959 23.5621 26.3468 23.4769 26.2231 23.362C26.0995 23.2472 26.0046 23.1059 25.9463 22.9496C25.8879 22.7932 25.8677 22.6262 25.8872 22.4618C25.9067 22.2975 25.9654 22.1405 26.0586 22.0035L31.5966 13.8625L15.9946 22.6185Z" fill="#7816DB"/>
<path d="M15.9946 22.6185L21.8982 24.3892C22.0607 24.4379 22.2098 24.5231 22.3335 24.6379C22.4572 24.7528 22.552 24.894 22.6103 25.0504C22.6687 25.2067 22.6889 25.3738 22.6694 25.5381C22.6499 25.7024 22.5912 25.8594 22.498 25.9965L16.96 34.1374L32.5599 25.3808L26.6584 23.6108C26.4959 23.5621 26.3468 23.4769 26.2231 23.362C26.0995 23.2472 26.0046 23.1059 25.9463 22.9496C25.8879 22.7932 25.8677 22.6262 25.8872 22.4618C25.9067 22.2975 25.9654 22.1405 26.0586 22.0035L31.5966 13.8625L15.9946 22.6185Z" fill="#7816DB"/>
</svg>
