<svg width="24" height="22" viewBox="0 0 24 22" fill="none" xmlns="http://www.w3.org/2000/svg">
<path d="M4 10.7369C4 10.9742 4.10536 11.2017 4.29289 11.3695C4.48043 11.5373 4.73478 11.6316 5 11.6316H12.59L10.29 13.6805C10.1963 13.7637 10.1219 13.8627 10.0711 13.9717C10.0203 14.0807 9.9942 14.1977 9.9942 14.3158C9.9942 14.4339 10.0203 14.5509 10.0711 14.6599C10.1219 14.7689 10.1963 14.8679 10.29 14.9511C10.383 15.0349 10.4936 15.1015 10.6154 15.1469C10.7373 15.1923 10.868 15.2157 11 15.2157C11.132 15.2157 11.2627 15.1923 11.3846 15.1469C11.5064 15.1015 11.617 15.0349 11.71 14.9511L15.71 11.3721C15.801 11.287 15.8724 11.1867 15.92 11.0769C16.02 10.859 16.02 10.6147 15.92 10.3969C15.8724 10.287 15.801 10.1867 15.71 10.1016L11.71 6.52265C11.6168 6.43922 11.5061 6.37305 11.3842 6.3279C11.2624 6.28275 11.1319 6.25951 11 6.25951C10.8681 6.25951 10.7376 6.28275 10.6158 6.3279C10.4939 6.37305 10.3832 6.43922 10.29 6.52265C10.1968 6.60607 10.1228 6.70511 10.0723 6.81411C10.0219 6.92311 9.99591 7.03993 9.99591 7.15791C9.99591 7.27589 10.0219 7.39271 10.0723 7.50171C10.1228 7.61071 10.1968 7.70975 10.29 7.79317L12.59 9.84212H5C4.73478 9.84212 4.48043 9.93639 4.29289 10.1042C4.10536 10.272 4 10.4996 4 10.7369ZM17 1.78949H7C6.20435 1.78949 5.44129 2.07229 4.87868 2.57568C4.31607 3.07906 4 3.7618 4 4.4737V7.15791C4 7.39521 4.10536 7.62279 4.29289 7.79059C4.48043 7.95838 4.73478 8.05265 5 8.05265C5.26522 8.05265 5.51957 7.95838 5.70711 7.79059C5.89464 7.62279 6 7.39521 6 7.15791V4.4737C6 4.2364 6.10536 4.00882 6.29289 3.84103C6.48043 3.67323 6.73478 3.57896 7 3.57896H17C17.2652 3.57896 17.5196 3.67323 17.7071 3.84103C17.8946 4.00882 18 4.2364 18 4.4737V17C18 17.2373 17.8946 17.4649 17.7071 17.6327C17.5196 17.8005 17.2652 17.8948 17 17.8948H7C6.73478 17.8948 6.48043 17.8005 6.29289 17.6327C6.10536 17.4649 6 17.2373 6 17V14.3158C6 14.0785 5.89464 13.8509 5.70711 13.6831C5.51957 13.5153 5.26522 13.4211 5 13.4211C4.73478 13.4211 4.48043 13.5153 4.29289 13.6831C4.10536 13.8509 4 14.0785 4 14.3158V17C4 17.7119 4.31607 18.3947 4.87868 18.898C5.44129 19.4014 6.20435 19.6842 7 19.6842H17C17.7957 19.6842 18.5587 19.4014 19.1213 18.898C19.6839 18.3947 20 17.7119 20 17V4.4737C20 3.7618 19.6839 3.07906 19.1213 2.57568C18.5587 2.07229 17.7957 1.78949 17 1.78949Z" fill="#616161"/>
<path d="M4.29289 11.3697C4.10536 11.2019 4 10.9743 4 10.737C4 10.4997 4.10536 10.2721 4.29289 10.1043C4.48043 9.93652 4.73478 9.84225 5 9.84225H12.59L10.29 7.7933C10.1968 7.70988 10.1228 7.61084 10.0723 7.50184C10.0219 7.39285 9.99591 7.27602 9.99591 7.15804C9.99591 7.04006 10.0219 6.92324 10.0723 6.81424C10.1228 6.70524 10.1968 6.6062 10.29 6.52278C10.3832 6.43935 10.4939 6.37318 10.6158 6.32803C10.7376 6.28288 10.8681 6.25964 11 6.25964C11.1319 6.25964 11.2624 6.28288 11.3843 6.32803C11.5061 6.37318 11.6168 6.43935 11.71 6.52278L15.71 10.1017C15.801 10.1868 15.8724 10.2872 15.92 10.397C16.02 10.6148 16.02 10.8592 15.92 11.077C15.8724 11.1868 15.801 11.2872 15.71 11.3723L11.71 14.9512C11.617 15.0351 11.5064 15.1016 11.3846 15.1471C11.2627 15.1925 11.132 15.2159 11 15.2159C10.868 15.2159 10.7373 15.1925 10.6154 15.1471C10.4936 15.1016 10.383 15.0351 10.29 14.9512C10.1963 14.868 10.1219 14.7691 10.0711 14.66C10.0203 14.551 9.9942 14.4341 9.9942 14.3159C9.9942 14.1978 10.0203 14.0809 10.0711 13.9718C10.1219 13.8628 10.1963 13.7639 10.29 13.6807L12.59 11.6317H5C4.73478 11.6317 4.48043 11.5375 4.29289 11.3697Z" fill="#616161"/>
</svg>
