<svg width="18" height="18" viewBox="0 0 18 18" fill="none" xmlns="http://www.w3.org/2000/svg">
<mask id="mask0_5932_15893" style="mask-type:alpha" maskUnits="userSpaceOnUse" x="0" y="0" width="18" height="18">
<rect width="18" height="18" fill="#D9D9D9"/>
</mask>
<g mask="url(#mask0_5932_15893)">
<path d="M12.0735 9.97485L10.986 8.88735C11.0985 8.29985 10.9298 7.74985 10.4798 7.23735C10.0298 6.72485 9.44854 6.52485 8.73604 6.63735L7.64854 5.54985C7.86104 5.44985 8.07666 5.37485 8.29541 5.32485C8.51416 5.27485 8.74854 5.24985 8.99854 5.24985C9.93604 5.24985 10.7329 5.57798 11.3892 6.23423C12.0454 6.89048 12.3735 7.68735 12.3735 8.62485C12.3735 8.87485 12.3485 9.10923 12.2985 9.32798C12.2485 9.54673 12.1735 9.76235 12.0735 9.97485ZM14.4735 12.3374L13.386 11.2874C13.861 10.9249 14.2829 10.528 14.6517 10.0967C15.0204 9.66548 15.336 9.17485 15.5985 8.62485C14.9735 7.36235 14.0767 6.35923 12.9079 5.61548C11.7392 4.87173 10.436 4.49985 8.99854 4.49985C8.63604 4.49985 8.27979 4.52485 7.92979 4.57485C7.57979 4.62485 7.23604 4.69985 6.89854 4.79985L5.73604 3.63735C6.24854 3.42485 6.77354 3.26548 7.31104 3.15923C7.84854 3.05298 8.41104 2.99985 8.99854 2.99985C10.886 2.99985 12.5673 3.52173 14.0423 4.56548C15.5173 5.60923 16.586 6.96235 17.2485 8.62485C16.961 9.36235 16.5829 10.0467 16.1142 10.678C15.6454 11.3092 15.0985 11.8624 14.4735 12.3374ZM14.8485 16.9499L11.6985 13.8374C11.261 13.9749 10.8204 14.078 10.3767 14.1467C9.93291 14.2155 9.47354 14.2499 8.99854 14.2499C7.11104 14.2499 5.42979 13.728 3.95479 12.6842C2.47979 11.6405 1.41104 10.2874 0.748535 8.62485C1.01104 7.96235 1.34229 7.34673 1.74229 6.77798C2.14229 6.20923 2.59854 5.69985 3.11104 5.24985L1.04854 3.14985L2.09854 2.09985L15.8985 15.8999L14.8485 16.9499ZM4.16104 6.29985C3.79854 6.62485 3.46729 6.9811 3.16729 7.3686C2.86729 7.7561 2.61104 8.17485 2.39854 8.62485C3.02354 9.88735 3.92041 10.8905 5.08916 11.6342C6.25791 12.378 7.56104 12.7499 8.99854 12.7499C9.24854 12.7499 9.49229 12.7342 9.72979 12.703C9.96729 12.6717 10.211 12.6374 10.461 12.5999L9.78604 11.8874C9.64854 11.9249 9.51729 11.953 9.39229 11.9717C9.26729 11.9905 9.13604 11.9999 8.99854 11.9999C8.06104 11.9999 7.26416 11.6717 6.60791 11.0155C5.95166 10.3592 5.62354 9.56235 5.62354 8.62485C5.62354 8.48735 5.63291 8.3561 5.65166 8.2311C5.67041 8.1061 5.69854 7.97485 5.73604 7.83735L4.16104 6.29985Z" fill="#616161"/>
</g>
</svg>
