<svg width="0" height="0"><symbol xmlns="http://www.w3.org/2000/svg" id="logo" fill="none" viewBox="0 0 48 48"><rect width="45" height="45" x="1.5" y="1.5" stroke="currentColor" stroke-linejoin="round" stroke-width="3" rx="8.5"/><path fill="currentColor" d="M35.845 9.97c.168.176.272.401.294.64.021.24-.04.477-.175.675L28.67 22.008l6.9 2.07a1.09 1.09 0 0 1 .771.897 1.03 1.03 0 0 1-.526 1.036L14.043 38.233a1.11 1.11 0 0 1-1.333-.202 1.06 1.06 0 0 1-.293-.64c-.021-.239.04-.476.175-.674l7.293-10.725-6.9-2.07a1.1 1.1 0 0 1-.52-.338 1.06 1.06 0 0 1-.25-.559 1.03 1.03 0 0 1 .526-1.036L34.514 9.767a1.11 1.11 0 0 1 1.332.2zm-19.85 12.649 5.903 1.77a1.08 1.08 0 0 1 .712.661 1.04 1.04 0 0 1-.112.947l-5.538 8.14 15.6-8.756-5.902-1.77a1.1 1.1 0 0 1-.435-.249 1.1 1.1 0 0 1-.277-.412 1.04 1.04 0 0 1 .113-.947l5.538-8.14z"/><path fill="currentColor" d="m15.995 22.619 5.903 1.77a1.08 1.08 0 0 1 .712.661 1.04 1.04 0 0 1-.112.947l-5.538 8.14 15.6-8.756-5.902-1.77a1.1 1.1 0 0 1-.435-.249 1.1 1.1 0 0 1-.277-.412 1.04 1.04 0 0 1 .113-.947l5.538-8.14z"/></symbol><symbol xmlns="http://www.w3.org/2000/svg" id="logout" fill="none" viewBox="0 0 24 22"><path fill="currentColor" d="M4 10.737a.85.85 0 0 0 .293.633c.187.167.442.262.707.262h7.59l-2.3 2.049a.9.9 0 0 0-.219.29.81.81 0 0 0 0 .689q.077.165.219.291c.093.084.204.15.325.196a1.1 1.1 0 0 0 .77 0q.184-.07.325-.196l4-3.579a.9.9 0 0 0 .21-.295c.1-.218.1-.462 0-.68a.9.9 0 0 0-.21-.295l-4-3.58a1 1 0 0 0-.326-.194 1.1 1.1 0 0 0-.768 0 1 1 0 0 0-.326.195.9.9 0 0 0-.218.291.82.82 0 0 0 0 .688.9.9 0 0 0 .218.291l2.3 2.05H5c-.265 0-.52.093-.707.261a.85.85 0 0 0-.293.633m13-8.948H7c-.796 0-1.559.283-2.121.787C4.316 3.079 4 3.762 4 4.474v2.684a.85.85 0 0 0 .293.633c.187.167.442.262.707.262s.52-.095.707-.262A.85.85 0 0 0 6 7.158V4.474a.85.85 0 0 1 .293-.633A1.06 1.06 0 0 1 7 3.579h10c.265 0 .52.094.707.262a.85.85 0 0 1 .293.633V17a.85.85 0 0 1-.293.633 1.06 1.06 0 0 1-.707.262H7c-.265 0-.52-.095-.707-.262A.85.85 0 0 1 6 17v-2.684a.85.85 0 0 0-.293-.633A1.06 1.06 0 0 0 5 13.421c-.265 0-.52.094-.707.262a.85.85 0 0 0-.293.633V17c0 .712.316 1.395.879 1.898A3.2 3.2 0 0 0 7 19.684h10c.796 0 1.559-.283 2.121-.786S20 17.712 20 17V4.474c0-.712-.316-1.395-.879-1.898A3.2 3.2 0 0 0 17 1.789"/><path fill="currentColor" d="M4.293 11.37A.85.85 0 0 1 4 10.737a.85.85 0 0 1 .293-.633c.187-.167.442-.262.707-.262h7.59l-2.3-2.049a.9.9 0 0 1-.218-.291.82.82 0 0 1 0-.688.9.9 0 0 1 .218-.291q.141-.127.326-.195a1.1 1.1 0 0 1 .768 0q.185.068.326.195l4 3.579a.9.9 0 0 1 .21.295c.1.218.1.462 0 .68a.9.9 0 0 1-.21.295l-4 3.58q-.142.126-.325.195a1.1 1.1 0 0 1-.77 0 1 1 0 0 1-.325-.196.9.9 0 0 1-.219-.291.81.81 0 0 1 0-.688.9.9 0 0 1 .219-.291l2.3-2.05H5c-.265 0-.52-.094-.707-.261"/></symbol><symbol xmlns="http://www.w3.org/2000/svg" id="plus" fill="none" viewBox="0 0 24 24"><path stroke="currentColor" stroke-linecap="round" stroke-linejoin="round" stroke-width="2" d="M12 5v14m-7-7h14"/></symbol><symbol xmlns="http://www.w3.org/2000/svg" id="settings" fill="none" viewBox="0 0 24 24"><path stroke="currentColor" stroke-width="1.5" d="M12 15a3 3 0 1 0 0-6 3 3 0 0 0 0 6Z"/><path stroke="currentColor" stroke-width="1.5" d="M13.764 2.152C13.397 2 12.93 2 11.999 2c-.933 0-1.399 0-1.766.152A2 2 0 0 0 9.15 3.235c-.091.223-.129.484-.143.863a1.62 1.62 0 0 1-.79 1.353 1.62 1.62 0 0 1-1.567.008c-.336-.178-.578-.276-.82-.308a2 2 0 0 0-1.477.396c-.314.243-.548.646-1.014 1.453s-.7 1.21-.751 1.605a2 2 0 0 0 .395 1.479c.148.192.355.353.676.555.474.297.777.803.777 1.361s-.303 1.064-.776 1.36c-.322.203-.53.364-.677.556a2 2 0 0 0-.396 1.479c.052.394.285.798.75 1.605.467.807.7 1.21 1.015 1.453a2 2 0 0 0 1.48.396c.24-.032.482-.13.819-.308a1.62 1.62 0 0 1 1.566.008c.483.28.77.795.79 1.353.014.38.05.64.143.863a2 2 0 0 0 1.083 1.083c.367.152.833.152 1.765.152.933 0 1.399 0 1.766-.152a2 2 0 0 0 1.083-1.083c.091-.223.129-.483.143-.863.02-.558.306-1.074.79-1.353a1.62 1.62 0 0 1 1.566-.008c.337.178.58.276.82.308a2 2 0 0 0 1.479-.396c.314-.242.547-.646 1.014-1.453s.7-1.21.75-1.605a2 2 0 0 0-.395-1.479c-.148-.192-.355-.353-.677-.555A1.62 1.62 0 0 1 19.562 12c0-.558.303-1.064.776-1.36.322-.203.53-.364.677-.556a2 2 0 0 0 .396-1.479c-.052-.394-.285-.798-.75-1.605-.468-.807-.7-1.21-1.015-1.453a2 2 0 0 0-1.48-.396c-.24.032-.482.13-.82.308a1.62 1.62 0 0 1-1.565-.008 1.62 1.62 0 0 1-.79-1.353c-.014-.38-.05-.64-.143-.863a2 2 0 0 0-1.083-1.083Z"/></symbol></svg>