<svg width="0" height="0"><symbol xmlns="http://www.w3.org/2000/svg" id="analytics" fill="none" viewBox="0 0 19 19"><path stroke="currentColor" stroke-linecap="round" stroke-linejoin="round" stroke-miterlimit="5.759" stroke-width="1.5" d="M2.375 2.375v12.667a1.584 1.584 0 0 0 1.583 1.583h12.667"/><path stroke="currentColor" stroke-linecap="round" stroke-linejoin="round" stroke-miterlimit="5.759" stroke-width="1.5" d="m5.542 11.084 3.166-3.167 3.167 3.167 4.75-4.75"/><path stroke="currentColor" stroke-linecap="round" stroke-linejoin="round" stroke-width="1.5" d="M14.25 6.334h2.375v2.375"/></symbol><symbol xmlns="http://www.w3.org/2000/svg" id="catalog" fill="none" viewBox="0 0 19 19"><path stroke="currentColor" stroke-width="1.5" d="M4.74 6.283v3.645m0-3.645c.91 0 1.649-.742 1.649-1.657s-.739-1.657-1.65-1.657S3.09 3.71 3.09 4.626s.739 1.657 1.65 1.657Zm6.926 9.279H6.74a2 2 0 0 1-2-2V9.928m6.927 5.634c0 .915.739 1.657 1.65 1.657s1.65-.742 1.65-1.657-.74-1.657-1.65-1.657c-.911 0-1.65.742-1.65 1.657ZM4.74 9.928h6.927m0 0c0 .915.739 1.657 1.65 1.657s1.65-.742 1.65-1.657-.74-1.657-1.65-1.657c-.911 0-1.65.742-1.65 1.657Z"/></symbol><symbol xmlns="http://www.w3.org/2000/svg" id="check-circle" fill="none" viewBox="0 0 22 22"><path fill="currentColor" d="m9.317 15.817 7.637-7.638-1.517-1.517-6.12 6.121-3.088-3.087-1.516 1.517zm1.516 5.85q-2.247 0-4.225-.854a10.9 10.9 0 0 1-3.44-2.315 10.9 10.9 0 0 1-2.315-3.44A10.55 10.55 0 0 1 0 10.833q0-2.247.853-4.225a10.9 10.9 0 0 1 2.316-3.44A10.9 10.9 0 0 1 6.609.854 10.55 10.55 0 0 1 10.832 0q2.248 0 4.225.853a10.9 10.9 0 0 1 3.44 2.316 10.9 10.9 0 0 1 2.316 3.44q.853 1.976.853 4.224t-.854 4.225a10.9 10.9 0 0 1-2.315 3.44 10.9 10.9 0 0 1-3.44 2.316 10.55 10.55 0 0 1-4.225.853m0-2.167q3.63 0 6.148-2.519 2.52-2.518 2.519-6.148T16.98 4.685t-6.148-2.518-6.148 2.518q-2.518 2.52-2.518 6.148 0 3.63 2.518 6.148 2.52 2.52 6.148 2.519"/></symbol><symbol xmlns="http://www.w3.org/2000/svg" id="delete" fill="none" viewBox="0 0 14 14"><path fill="currentColor" d="M4.444 11a1 1 0 0 1-.666-.238.73.73 0 0 1-.277-.569V4H3.21a.3.3 0 0 1-.208-.072.23.23 0 0 1-.084-.179q0-.106.084-.178A.3.3 0 0 1 3.21 3.5h2.04q0-.155.134-.27a.47.47 0 0 1 .315-.115h2.602q.18 0 .315.115.134.115.134.27h2.042q.124 0 .208.072a.23.23 0 0 1 .084.178q0 .106-.084.178a.3.3 0 0 1-.208.072H10.5v6.193a.73.73 0 0 1-.277.57A1 1 0 0 1 9.56 11zm5.474-7H4.085v6.193q0 .135.1.22a.38.38 0 0 0 .259.087h5.115q.157 0 .258-.086a.28.28 0 0 0 .101-.221zM6.223 9.428a.23.23 0 0 0 .083-.178v-4a.22.22 0 0 0-.084-.178A.3.3 0 0 0 6.014 5a.3.3 0 0 0-.208.072.23.23 0 0 0-.083.178v4q0 .106.084.178a.3.3 0 0 0 .207.072.3.3 0 0 0 .209-.072m1.974 0a.23.23 0 0 0 .083-.178v-4a.22.22 0 0 0-.084-.178A.3.3 0 0 0 7.988 5a.3.3 0 0 0-.208.072.22.22 0 0 0-.083.178v4q0 .106.084.178a.3.3 0 0 0 .208.072.3.3 0 0 0 .208-.072"/></symbol><symbol xmlns="http://www.w3.org/2000/svg" id="logo" fill="none" viewBox="0 0 48 48"><rect width="45" height="45" x="1.5" y="1.5" stroke="currentColor" stroke-linejoin="round" stroke-width="3" rx="8.5"/><path fill="currentColor" d="M35.845 9.97c.168.176.272.401.294.64.021.24-.04.477-.175.675L28.67 22.008l6.9 2.07a1.09 1.09 0 0 1 .771.897 1.03 1.03 0 0 1-.526 1.036L14.043 38.233a1.11 1.11 0 0 1-1.333-.202 1.06 1.06 0 0 1-.293-.64c-.021-.239.04-.476.175-.674l7.293-10.725-6.9-2.07a1.1 1.1 0 0 1-.52-.338 1.06 1.06 0 0 1-.25-.559 1.03 1.03 0 0 1 .526-1.036L34.514 9.767a1.11 1.11 0 0 1 1.332.2zm-19.85 12.649 5.903 1.77a1.08 1.08 0 0 1 .712.661 1.04 1.04 0 0 1-.112.947l-5.538 8.14 15.6-8.756-5.902-1.77a1.1 1.1 0 0 1-.435-.249 1.1 1.1 0 0 1-.277-.412 1.04 1.04 0 0 1 .113-.947l5.538-8.14z"/><path fill="currentColor" d="m15.995 22.619 5.903 1.77a1.08 1.08 0 0 1 .712.661 1.04 1.04 0 0 1-.112.947l-5.538 8.14 15.6-8.756-5.902-1.77a1.1 1.1 0 0 1-.435-.249 1.1 1.1 0 0 1-.277-.412 1.04 1.04 0 0 1 .113-.947l5.538-8.14z"/></symbol><symbol xmlns="http://www.w3.org/2000/svg" id="logout" fill="none" viewBox="0 0 24 22"><path fill="currentColor" d="M4 10.737a.85.85 0 0 0 .293.633c.187.167.442.262.707.262h7.59l-2.3 2.049a.9.9 0 0 0-.219.29.81.81 0 0 0 0 .689q.077.165.219.291c.093.084.204.15.325.196a1.1 1.1 0 0 0 .77 0q.184-.07.325-.196l4-3.579a.9.9 0 0 0 .21-.295c.1-.218.1-.462 0-.68a.9.9 0 0 0-.21-.295l-4-3.58a1 1 0 0 0-.326-.194 1.1 1.1 0 0 0-.768 0 1 1 0 0 0-.326.195.9.9 0 0 0-.218.291.82.82 0 0 0 0 .688.9.9 0 0 0 .218.291l2.3 2.05H5c-.265 0-.52.093-.707.261a.85.85 0 0 0-.293.633m13-8.948H7c-.796 0-1.559.283-2.121.787C4.316 3.079 4 3.762 4 4.474v2.684a.85.85 0 0 0 .293.633c.187.167.442.262.707.262s.52-.095.707-.262A.85.85 0 0 0 6 7.158V4.474a.85.85 0 0 1 .293-.633A1.06 1.06 0 0 1 7 3.579h10c.265 0 .52.094.707.262a.85.85 0 0 1 .293.633V17a.85.85 0 0 1-.293.633 1.06 1.06 0 0 1-.707.262H7c-.265 0-.52-.095-.707-.262A.85.85 0 0 1 6 17v-2.684a.85.85 0 0 0-.293-.633A1.06 1.06 0 0 0 5 13.421c-.265 0-.52.094-.707.262a.85.85 0 0 0-.293.633V17c0 .712.316 1.395.879 1.898A3.2 3.2 0 0 0 7 19.684h10c.796 0 1.559-.283 2.121-.786S20 17.712 20 17V4.474c0-.712-.316-1.395-.879-1.898A3.2 3.2 0 0 0 17 1.789"/><path fill="currentColor" d="M4.293 11.37A.85.85 0 0 1 4 10.737a.85.85 0 0 1 .293-.633c.187-.167.442-.262.707-.262h7.59l-2.3-2.049a.9.9 0 0 1-.218-.291.82.82 0 0 1 0-.688.9.9 0 0 1 .218-.291q.141-.127.326-.195a1.1 1.1 0 0 1 .768 0q.185.068.326.195l4 3.579a.9.9 0 0 1 .21.295c.1.218.1.462 0 .68a.9.9 0 0 1-.21.295l-4 3.58q-.142.126-.325.195a1.1 1.1 0 0 1-.77 0 1 1 0 0 1-.325-.196.9.9 0 0 1-.219-.291.81.81 0 0 1 0-.688.9.9 0 0 1 .219-.291l2.3-2.05H5c-.265 0-.52-.094-.707-.261"/></symbol><symbol xmlns="http://www.w3.org/2000/svg" id="plus" fill="none" viewBox="0 0 24 24"><path stroke="currentColor" stroke-linecap="round" stroke-linejoin="round" stroke-width="2" d="M12 5v14m-7-7h14"/></symbol><symbol xmlns="http://www.w3.org/2000/svg" id="report" fill="none" viewBox="0 0 19 19"><path stroke="currentColor" stroke-linecap="round" stroke-width="1.5" d="M9.461 1.592h-3.97a2 2 0 0 0-2 2V15.51a2 2 0 0 0 2 2h7.94a2 2 0 0 0 2-2V7.959M9.46 1.592v4.367a2 2 0 0 0 2 2h3.97M9.46 1.592c.508 0 .992.211 1.338.583l4.097 4.413a2 2 0 0 1 .535 1.36v.011m-2.786 3.184H6.277m0 2.786h6.368"/></symbol><symbol xmlns="http://www.w3.org/2000/svg" id="schedule" fill="none" viewBox="0 0 19 19"><path stroke="currentColor" stroke-linecap="round" stroke-width="1.5" d="M2.388 8.755V5.98a2 2 0 0 1 2-2h10.327a2 2 0 0 1 2 2v2.775m-14.327 0v5.96a2 2 0 0 0 2 2h10.327a2 2 0 0 0 2-2v-5.96m-14.327 0h14.327m-3.98-6.765v3.98M6.368 1.99v3.98"/></symbol><symbol xmlns="http://www.w3.org/2000/svg" id="settings" fill="none" viewBox="0 0 24 24"><path stroke="currentColor" stroke-width="1.5" d="M12 15a3 3 0 1 0 0-6 3 3 0 0 0 0 6Z"/><path stroke="currentColor" stroke-width="1.5" d="M13.764 2.152C13.397 2 12.93 2 11.999 2c-.933 0-1.399 0-1.766.152A2 2 0 0 0 9.15 3.235c-.091.223-.129.484-.143.863a1.62 1.62 0 0 1-.79 1.353 1.62 1.62 0 0 1-1.567.008c-.336-.178-.578-.276-.82-.308a2 2 0 0 0-1.477.396c-.314.243-.548.646-1.014 1.453s-.7 1.21-.751 1.605a2 2 0 0 0 .395 1.479c.148.192.355.353.676.555.474.297.777.803.777 1.361s-.303 1.064-.776 1.36c-.322.203-.53.364-.677.556a2 2 0 0 0-.396 1.479c.052.394.285.798.75 1.605.467.807.7 1.21 1.015 1.453a2 2 0 0 0 1.48.396c.24-.032.482-.13.819-.308a1.62 1.62 0 0 1 1.566.008c.483.28.77.795.79 1.353.014.38.05.64.143.863a2 2 0 0 0 1.083 1.083c.367.152.833.152 1.765.152.933 0 1.399 0 1.766-.152a2 2 0 0 0 1.083-1.083c.091-.223.129-.483.143-.863.02-.558.306-1.074.79-1.353a1.62 1.62 0 0 1 1.566-.008c.337.178.58.276.82.308a2 2 0 0 0 1.479-.396c.314-.242.547-.646 1.014-1.453s.7-1.21.75-1.605a2 2 0 0 0-.395-1.479c-.148-.192-.355-.353-.677-.555A1.62 1.62 0 0 1 19.562 12c0-.558.303-1.064.776-1.36.322-.203.53-.364.677-.556a2 2 0 0 0 .396-1.479c-.052-.394-.285-.798-.75-1.605-.468-.807-.7-1.21-1.015-1.453a2 2 0 0 0-1.48-.396c-.24.032-.482.13-.82.308a1.62 1.62 0 0 1-1.565-.008 1.62 1.62 0 0 1-.79-1.353c-.014-.38-.05-.64-.143-.863a2 2 0 0 0-1.083-1.083Z"/></symbol></svg>